<?xml version="1.0" encoding="UTF-8"?>
<svg width="24px" height="24px" viewBox="0 0 24 24" version="1.1" xmlns="http://www.w3.org/2000/svg">
    <g stroke="none" stroke-width="1" fill="none" fill-rule="evenodd">
        <path d="M7,13 C8.66,13 10,11.66 10,10 C10,8.34 8.66,7 7,7 C5.34,7 4,8.34 4,10 C4,11.66 5.34,13 7,13 Z M17,7 C15.34,7 14,8.34 14,10 C14,11.66 15.34,13 17,13 C18.66,13 20,11.66 20,10 C20,8.34 18.66,7 17,7 Z M7,15 C4.67,15 1,16.17 1,18.5 L1,20 L13,20 L13,18.5 C13,16.17 9.33,15 7,15 Z M17,15 C16.71,15 16.38,15.02 16.03,15.05 C17.19,15.89 18,17.02 18,18.5 L18,20 L23,20 L23,18.5 C23,16.17 19.33,15 17,15 Z" fill="#000000" fill-rule="nonzero"></path>
    </g>
</svg> 